<svg xmlns="http://www.w3.org/2000/svg" viewBox="0 0 1200 470" role="img" aria-label="My edge: self-assessed full-stack capability and domain focus radar charts"><title>My edge: self-assessed full-stack capability and domain focus radar charts</title><style>text{font-family:'JetBrains Mono','SFMono-Regular',Consolas,monospace}</style><rect x="1" y="1" width="1198" height="468" rx="16" fill="#0d1117" stroke="#22324a" stroke-width="2"/><circle cx="34" cy="34" r="4.5" fill="#34d399"/><text x="48" y="39" fill="#e6edf3" font-size="14" font-weight="800" letter-spacing="3">MY EDGE</text><text x="1168" y="39" text-anchor="end" fill="#51627f" font-size="12" letter-spacing="1">SELF-ASSESSED · 0–10</text><path d="M24 58H1176" stroke="#1b2a3e"/><defs><linearGradient id="fill0" x1="0" y1="0" x2="1" y2="1"><stop offset="0" stop-color="#22d3ee" stop-opacity=".32"/><stop offset="1" stop-color="#8792d0" stop-opacity=".22"/></linearGradient></defs><text x="300" y="90" text-anchor="middle" fill="#22d3ee" font-size="13" font-weight="800" letter-spacing="2.5">FULL-STACK CAPABILITY</text><polygon points="300.0,258.6 325.1,276.8 315.5,306.4 284.5,306.4 274.9,276.8" fill="none" stroke="#1b2a3e" stroke-width="1"/><polygon points="300.0,232.2 350.2,268.7 331.0,327.7 269.0,327.7 249.8,268.7" fill="none" stroke="#1b2a3e" stroke-width="1"/><polygon points="300.0,205.8 375.3,260.5 346.6,349.1 253.4,349.1 224.7,260.5" fill="none" stroke="#1b2a3e" stroke-width="1"/><polygon points="300.0,179.4 400.4,252.4 362.1,370.4 237.9,370.4 199.6,252.4" fill="none" stroke="#1b2a3e" stroke-width="1"/><polygon points="300.0,153.0 425.5,244.2 377.6,391.8 222.4,391.8 174.5,244.2" fill="none" stroke="#1b2a3e" stroke-width="1.5"/><path d="M300 285L300.0 153.0" stroke="#1b2a3e"/><path d="M300 285L425.5 244.2" stroke="#1b2a3e"/><path d="M300 285L377.6 391.8" stroke="#1b2a3e"/><path d="M300 285L222.4 391.8" stroke="#1b2a3e"/><path d="M300 285L174.5 244.2" stroke="#1b2a3e"/><g transform="translate(300 285)"><g><animateTransform attributeName="transform" type="scale" values="0;1" dur="1.4s" begin="0.2s" calcMode="spline" keyTimes="0;1" keySplines=".2 .8 .2 1" fill="freeze"/><polygon points="0.0,-112.2 100.4,-32.6 58.2,80.1 -50.4,69.4 -87.9,-28.6" fill="url(#fill0)" stroke="#22d3ee" stroke-width="2.5" stroke-linejoin="round"/><circle cx="0.0" cy="-112.2" r="4" fill="#22d3ee"/><circle cx="100.4" cy="-32.6" r="4" fill="#22d3ee"/><circle cx="58.2" cy="80.1" r="4" fill="#22d3ee"/><circle cx="-50.4" cy="69.4" r="4" fill="#22d3ee"/><circle cx="-87.9" cy="-28.6" r="4" fill="#22d3ee"/></g></g><text x="300.0" y="117.0" text-anchor="middle" fill="#e6edf3" font-size="14" font-weight="700">Frontend <tspan fill="#22d3ee">8.5</tspan></text><text x="454.1" y="238.9" text-anchor="start" fill="#e6edf3" font-size="14" font-weight="700">Backend <tspan fill="#22d3ee">8</tspan></text><text x="395.2" y="430.1" text-anchor="start" fill="#e6edf3" font-size="14" font-weight="700">Databases <tspan fill="#22d3ee">7.5</tspan></text><text x="204.8" y="430.1" text-anchor="end" fill="#e6edf3" font-size="14" font-weight="700">DevOps <tspan fill="#22d3ee">6.5</tspan></text><text x="145.9" y="238.9" text-anchor="end" fill="#e6edf3" font-size="14" font-weight="700">3D / XR <tspan fill="#22d3ee">7</tspan></text><defs><linearGradient id="fill1" x1="0" y1="0" x2="1" y2="1"><stop offset="0" stop-color="#22d3ee" stop-opacity=".32"/><stop offset="1" stop-color="#8792d0" stop-opacity=".22"/></linearGradient></defs><text x="900" y="90" text-anchor="middle" fill="#22d3ee" font-size="13" font-weight="800" letter-spacing="2.5">DOMAIN / TECHNICAL FOCUS</text><polygon points="900.0,258.6 925.1,276.8 915.5,306.4 884.5,306.4 874.9,276.8" fill="none" stroke="#1b2a3e" stroke-width="1"/><polygon points="900.0,232.2 950.2,268.7 931.0,327.7 869.0,327.7 849.8,268.7" fill="none" stroke="#1b2a3e" stroke-width="1"/><polygon points="900.0,205.8 975.3,260.5 946.6,349.1 853.4,349.1 824.7,260.5" fill="none" stroke="#1b2a3e" stroke-width="1"/><polygon points="900.0,179.4 1000.4,252.4 962.1,370.4 837.9,370.4 799.6,252.4" fill="none" stroke="#1b2a3e" stroke-width="1"/><polygon points="900.0,153.0 1025.5,244.2 977.6,391.8 822.4,391.8 774.5,244.2" fill="none" stroke="#1b2a3e" stroke-width="1.5"/><path d="M900 285L900.0 153.0" stroke="#1b2a3e"/><path d="M900 285L1025.5 244.2" stroke="#1b2a3e"/><path d="M900 285L977.6 391.8" stroke="#1b2a3e"/><path d="M900 285L822.4 391.8" stroke="#1b2a3e"/><path d="M900 285L774.5 244.2" stroke="#1b2a3e"/><g transform="translate(900 285)"><g><animateTransform attributeName="transform" type="scale" values="0;1" dur="1.4s" begin="0.45s" calcMode="spline" keyTimes="0;1" keySplines=".2 .8 .2 1" fill="freeze"/><polygon points="0.0,-112.2 106.7,-34.7 58.2,80.1 -65.9,90.8 -94.2,-30.6" fill="url(#fill1)" stroke="#22d3ee" stroke-width="2.5" stroke-linejoin="round"/><circle cx="0.0" cy="-112.2" r="4" fill="#22d3ee"/><circle cx="106.7" cy="-34.7" r="4" fill="#22d3ee"/><circle cx="58.2" cy="80.1" r="4" fill="#22d3ee"/><circle cx="-65.9" cy="90.8" r="4" fill="#22d3ee"/><circle cx="-94.2" cy="-30.6" r="4" fill="#22d3ee"/></g></g><text x="900.0" y="117.0" text-anchor="middle" fill="#e6edf3" font-size="14" font-weight="700">ERP <tspan fill="#22d3ee">8.5</tspan></text><text x="1054.1" y="238.9" text-anchor="start" fill="#e6edf3" font-size="14" font-weight="700">Logistics <tspan fill="#22d3ee">8.5</tspan></text><text x="995.2" y="430.1" text-anchor="start" fill="#e6edf3" font-size="14" font-weight="700">System Design <tspan fill="#22d3ee">7.5</tspan></text><text x="804.8" y="430.1" text-anchor="end" fill="#e6edf3" font-size="14" font-weight="700">Problem Solving <tspan fill="#22d3ee">8.5</tspan></text><text x="745.9" y="238.9" text-anchor="end" fill="#e6edf3" font-size="14" font-weight="700">Product Thinking <tspan fill="#22d3ee">7.5</tspan></text><path d="M600 84V440" stroke="#1b2a3e" stroke-dasharray="2 7"/></svg>
